<?xml version="1.0" standalone="no"?>
<!DOCTYPE svg PUBLIC "-//W3C//DTD SVG 20010904//EN"
 "http://www.w3.org/TR/2001/REC-SVG-20010904/DTD/svg10.dtd">
<svg version="1.0" xmlns="http://www.w3.org/2000/svg"
 width="300.000000pt" height="225.000000pt" viewBox="0 0 300.000000 225.000000"
 preserveAspectRatio="xMidYMid meet">
<metadata>
Created by potrace 1.10, written by Peter Selinger 2001-2011
</metadata>
<g transform="translate(0.000000,225.000000) scale(0.050000,-0.050000)"
fill="#ffffff" stroke="none">
<path d="M1949 4482 c-5 -5 -43 -10 -84 -11 -92 -1 -132 -111 -41 -111 156 -2
359 -33 587 -91 554 -142 615 -152 712 -117 127 46 664 52 672 7 7 -34 -233
-95 -274 -70 -11 7 -21 0 -21 -17 0 -45 16 -47 209 -30 125 12 186 10 205 -6
56 -46 10 -61 -190 -62 -135 -1 -204 -9 -204 -23 0 -15 72 -23 212 -25 212 -2
280 -22 234 -68 -14 -14 -95 -19 -224 -15 -233 8 -293 -32 -77 -51 314 -28
310 -28 300 12 -7 26 -1 33 19 26 16 -7 29 -41 30 -81 1 -39 13 -83 26 -99 19
-23 17 -36 -8 -61 -18 -18 -26 -42 -19 -54 9 -14 2 -17 -20 -9 -18 7 -33 5
-33 -5 0 -9 -18 -13 -40 -7 -22 6 -40 1 -40 -10 0 -12 -14 -35 -32 -53 -17
-17 -28 -42 -23 -55 5 -15 23 -8 50 19 35 35 44 37 54 11 9 -24 18 -25 39 -7
20 16 33 16 41 2 8 -12 4 -21 -8 -21 -37 0 -23 -58 20 -80 22 -12 35 -31 28
-41 -6 -10 -1 -19 11 -19 12 0 17 -9 10 -20 -7 -12 -20 -16 -28 -11 -8 5 -15
-17 -15 -49 0 -45 6 -54 25 -38 21 17 21 8 2 -42 -21 -54 -19 -66 10 -82 19
-10 30 -31 24 -46 -6 -15 3 -60 20 -100 26 -64 27 -72 0 -72 -17 0 -27 -14
-24 -33 3 -18 -7 -37 -24 -41 -27 -8 -27 -7 0 14 25 19 24 21 -10 16 -65 -11
-49 -81 26 -117 36 -17 61 -35 56 -40 -5 -5 12 -9 38 -9 37 0 42 6 24 27 -33
40 -34 79 -2 91 57 22 37 283 -54 702 -23 110 -46 232 -50 270 -14 145 -22
191 -42 240 -11 28 -17 64 -11 80 7 23 4 24 -10 4 -18 -25 -102 124 -90 161 3
9 -5 56 -17 105 -25 99 -74 123 -70 35 2 -51 -4 -55 -78 -59 -78 -3 -79 -3
-24 19 39 17 54 35 50 64 -6 43 -2 43 -226 29 -55 -4 -152 3 -215 15 -103 19
-127 16 -228 -25 l-114 -46 -231 58 c-128 33 -250 62 -272 65 -22 3 -51 13
-65 22 -14 9 -70 14 -125 11 -54 -3 -105 0 -112 7 -6 7 -34 4 -60 -6 -35 -13
-48 -11 -48 7 0 25 -129 38 -151 16z"/>
<path d="M1605 4246 c19 -5 35 -17 35 -27 0 -11 -16 -19 -35 -19 -30 -1 -31
-3 -5 -21 26 -17 24 -25 -14 -57 -44 -37 -44 -38 -5 -48 24 -6 34 -2 26 11 -7
12 -4 15 8 8 13 -8 15 -39 5 -83 -12 -52 -9 -70 10 -70 31 0 50 -42 40 -93 -4
-20 -8 -43 -8 -50 -1 -7 -22 -18 -47 -25 -35 -9 -39 -16 -17 -30 27 -18 -46
-77 -83 -66 -8 2 -15 -9 -15 -26 0 -16 -7 -29 -15 -28 -44 7 -65 -6 -65 -41 0
-24 10 -36 26 -30 14 6 46 -17 70 -50 48 -65 46 -80 -3 -31 -27 27 -30 26 -28
-8 2 -22 9 -35 17 -31 33 21 74 -80 43 -109 -24 -23 -24 -30 -2 -44 25 -16 9
-27 -29 -20 -10 2 -12 -5 -6 -15 7 -11 -4 -25 -23 -32 -29 -11 -30 -16 -4 -32
25 -16 25 -18 -2 -19 -17 0 -42 11 -55 24 -19 19 -24 13 -24 -25 -1 -39 -5
-43 -20 -19 -15 24 -19 24 -20 3 0 -24 -5 -24 -34 0 -18 15 -28 17 -20 5 7
-12 -9 -32 -37 -45 -47 -21 -49 -20 -29 17 17 32 15 37 -10 27 -16 -6 -30 -17
-30 -25 0 -7 -29 -13 -65 -13 -36 1 -69 -4 -75 -11 -5 -6 -37 -18 -70 -26 -44
-10 -52 -8 -30 7 26 18 25 20 -4 21 -25 0 -31 10 -22 35 8 22 -3 17 -30 -15
-24 -28 -43 -39 -43 -24 -1 15 -20 25 -46 23 -25 -2 -49 -2 -55 1 -5 2 -41 7
-80 12 -38 4 -81 10 -95 11 -14 2 -25 12 -25 22 0 11 -16 13 -35 5 -19 -8 -46
-18 -60 -24 -14 -6 -25 3 -25 20 0 33 -100 38 -101 4 0 -11 -11 -6 -25 11 -13
17 -46 32 -72 34 -58 4 -88 44 -58 79 15 19 14 26 -2 26 -20 0 -30 -26 -25
-63 1 -7 -17 -8 -41 -2 -27 7 -38 4 -29 -10 8 -12 5 -28 -7 -35 -11 -7 -20 -2
-20 10 0 14 -12 11 -30 -7 -36 -37 -40 -113 -5 -114 101 -5 155 -18 200 -47
33 -22 95 -34 178 -36 70 -1 168 -15 217 -32 284 -94 956 -4 1118 150 26 26
57 47 70 48 12 1 0 8 -28 16 -41 11 -53 30 -66 113 -9 54 -25 126 -37 159 -11
33 -25 74 -30 91 -24 78 369 349 487 335 50 -5 134 -97 182 -196 8 -16 68
-110 134 -208 263 -389 266 -395 281 -527 11 -99 9 -125 -13 -127 -121 -7
-145 -21 -301 -181 -40 -41 -79 -68 -86 -61 -7 7 -22 0 -32 -17 -12 -20 -18
-21 -19 -4 0 14 -22 25 -50 25 -29 0 -50 -11 -50 -28 0 -20 -22 -25 -90 -17
-82 9 -90 6 -90 -34 0 -38 -9 -43 -73 -37 -71 6 -123 56 -59 56 18 0 32 9 32
20 0 21 -65 28 -84 10 -6 -6 -6 -33 -1 -60 13 -69 205 -78 205 -10 0 28 13 40
45 39 39 0 41 -3 13 -25 -17 -13 -28 -34 -24 -45 8 -25 126 -13 126 13 0 9 13
12 28 6 15 -6 34 -1 41 11 7 11 31 21 53 21 22 0 35 9 28 20 -7 11 2 20 19 20
18 0 91 49 163 108 157 129 208 149 208 81 0 -26 -9 -52 -20 -59 -11 -7 -20 2
-20 19 0 37 -23 40 -55 8 -18 -18 -13 -29 21 -46 35 -18 49 -17 69 8 22 27 30
26 65 -16 52 -62 51 -90 -3 -76 -96 25 -237 -188 -236 -357 0 -143 134 -309
249 -310 31 -1 34 -5 12 -18 -22 -14 -20 -20 10 -28 35 -9 34 -11 -7 -24 -54
-17 -55 -26 -12 -73 30 -34 29 -37 -24 -57 -30 -12 -61 -14 -67 -5 -7 9 -35
31 -64 49 -29 18 -68 67 -87 110 -38 81 -126 186 -157 186 -10 0 -4 -22 14
-49 42 -64 40 -77 -5 -52 -83 44 -163 316 -86 292 25 -8 43 -5 43 7 0 11 23
44 50 74 31 33 46 68 40 89 -6 19 1 47 16 62 31 31 74 106 74 130 0 8 -31 -16
-70 -53 -42 -40 -70 -87 -70 -116 0 -31 -14 -51 -40 -58 -32 -9 -36 -17 -18
-38 13 -16 17 -29 10 -30 -6 -2 -21 -5 -32 -8 -11 -3 -28 -6 -37 -8 -36 -5
-64 -103 -41 -146 16 -31 16 -45 -2 -56 -32 -20 -30 -43 8 -64 18 -10 32 -29
32 -44 0 -31 84 -112 116 -112 14 0 44 -22 68 -50 24 -28 54 -50 67 -50 13 0
34 -12 46 -27 32 -38 -56 -82 -131 -66 -31 7 -96 18 -145 24 -48 5 -101 20
-115 33 -20 16 -34 16 -49 1 -26 -26 39 -63 218 -123 136 -46 265 -54 299 -20
16 16 33 16 59 1 34 -20 33 -22 -10 -22 l-47 -1 52 -62 c67 -79 86 -153 47
-184 -16 -13 -63 -80 -105 -149 -85 -140 -124 -155 -198 -75 -26 28 -59 50
-74 49 -38 0 95 -119 134 -119 40 0 21 -67 -46 -156 -27 -36 -76 -124 -108
-195 -32 -71 -67 -129 -78 -129 -10 0 -62 -38 -116 -85 -53 -47 -123 -104
-154 -126 -99 -71 -58 -110 115 -110 80 -1 177 -1 215 -2 152 -2 424 21 446
39 20 16 206 84 229 84 4 0 1 -11 -7 -25 -11 -20 -8 -20 13 0 15 14 41 25 58
26 66 1 112 56 85 100 -14 22 -20 49 -13 60 16 26 84 24 93 -3 4 -11 38 -23
77 -25 73 -3 86 26 48 115 -14 33 -9 36 36 25 41 -10 55 -5 65 27 7 22 26 40
41 40 16 0 29 12 29 26 0 37 150 99 264 110 95 9 124 34 67 57 -59 22 -61 143
-5 193 50 43 61 77 56 171 -1 31 -11 44 -30 37 -16 -6 -36 9 -49 38 -25 54
-48 60 -79 22 -25 -30 -73 -150 -52 -129 8 8 27 5 41 -8 29 -24 3 -77 -37 -77
-11 0 -47 -20 -81 -44 -65 -46 -246 -66 -269 -29 -7 11 -2 13 14 3 17 -10 22
-6 15 12 -5 15 -22 25 -38 22 -15 -3 -1 17 31 45 31 27 64 46 72 41 9 -5 20 9
26 32 8 30 3 38 -17 30 -54 -20 -156 186 -134 271 2 7 -16 8 -40 2 -31 -9 -35
-15 -14 -23 16 -7 29 -38 29 -72 0 -33 7 -70 16 -83 8 -12 3 -35 -12 -50 -15
-15 -25 -39 -22 -53 3 -14 0 -16 -5 -5 -19 38 -60 22 -88 -34 -61 -121 -289
-284 -374 -268 -14 3 -25 -4 -25 -14 0 -10 -27 -17 -60 -16 -66 3 -74 16 -32
51 22 18 31 18 40 -2 6 -14 7 -6 0 19 -6 28 -2 45 13 45 14 0 19 17 12 43 -12
49 20 124 47 107 17 -10 41 145 39 260 -1 127 2 154 29 219 74 176 218 204
258 51 18 -68 49 -112 66 -95 8 8 -3 35 -24 60 -27 31 -28 37 -5 19 23 -18 38
-19 46 -5 8 12 36 21 63 21 67 0 45 32 -32 47 -40 8 -67 29 -80 63 -13 33 -34
50 -65 50 -25 0 -71 14 -103 30 -32 17 -104 44 -160 61 -137 41 -172 71 -194
168 -20 88 2 161 49 161 16 0 37 51 53 130 15 72 37 130 49 130 11 0 48 15 81
33 153 83 212 107 269 107 34 0 61 9 61 19 0 25 54 52 135 68 44 8 63 4 60
-11 -6 -29 80 -50 215 -54 106 -3 270 -65 270 -102 0 -12 -8 -17 -18 -11 -10
6 -13 -8 -7 -31 6 -23 25 -46 43 -52 153 -48 184 -115 44 -96 -115 15 -141
-12 -143 -144 0 -42 -13 -98 -29 -126 -80 -140 -18 -272 84 -177 l46 44 0 -52
c0 -29 -10 -59 -21 -66 -45 -28 -62 -113 -29 -149 17 -19 26 -48 20 -64 -7
-16 2 -41 19 -55 25 -21 33 -20 43 7 7 17 25 32 41 32 16 0 24 8 18 18 -6 10
21 42 61 72 39 30 66 58 61 64 -6 5 20 36 57 69 46 40 81 99 110 188 l43 129
-43 70 c-34 55 -36 67 -12 58 45 -17 40 26 -5 51 -23 12 -43 52 -51 100 -12
78 -72 120 -72 51 0 -16 -8 -30 -18 -30 -10 0 -31 -5 -46 -10 -18 -7 -29 5
-31 34 -2 25 -18 56 -36 69 -18 14 -27 34 -20 46 7 11 6 21 -3 21 -18 0 -66
96 -66 133 0 13 20 28 45 33 39 7 37 9 -10 11 -30 2 -55 -6 -55 -17 0 -38 -75
-20 -86 20 -6 22 -27 40 -47 39 -35 0 -35 -2 2 -29 21 -16 34 -33 30 -38 -17
-16 -188 24 -195 46 -4 13 -23 11 -52 -9 -25 -16 -50 -24 -57 -17 -6 6 -30 1
-53 -11 -28 -15 -42 -15 -42 -2 0 12 -14 21 -32 21 -21 0 -28 11 -20 32 9 24
4 29 -19 20 -18 -6 -37 -12 -42 -12 -5 0 -5 -7 1 -16 5 -9 -32 -19 -84 -21
-70 -4 -103 -16 -129 -49 -23 -30 -34 -35 -35 -15 0 21 -6 23 -22 7 -13 -13
-36 -18 -51 -12 -16 6 -41 -5 -55 -25 -33 -45 -52 -17 -65 101 -6 57 -2 90 12
90 12 0 20 25 18 55 -3 30 6 75 19 98 18 34 18 46 -1 54 -19 7 -17 15 5 31 19
13 37 13 49 1 31 -31 48 -22 37 21 -7 28 -1 40 22 40 17 0 32 7 32 15 0 35 83
68 111 44 16 -13 38 -15 53 -6 49 32 272 21 262 -13 -7 -21 0 -19 20 6 26 31
28 50 16 111 -1 5 -17 -4 -36 -20 -18 -15 -28 -17 -20 -4 9 14 -11 27 -56 36
-39 7 -70 21 -70 32 0 10 -16 20 -35 20 -19 1 15 18 75 38 118 39 116 42 -61
70 -87 14 -217 143 -240 237 -11 48 -15 52 -17 19 -3 -56 -4 -56 -183 8 -121
43 -188 54 -359 57 -209 3 -211 4 -386 97 -158 83 -280 111 -185 41 55 -40 22
-108 -52 -108 -33 0 -76 -9 -97 -20 -42 -23 -38 -31 -91 190 -35 141 -54 171
-109 167 -21 -1 -20 -4 5 -11z m1129 -419 c-7 -6 28 -52 78 -100 49 -48 85
-95 79 -105 -6 -10 2 -23 18 -29 17 -6 35 -3 42 8 6 10 0 19 -14 19 -20 0 -20
5 0 25 18 18 28 19 39 1 8 -12 39 -29 69 -37 30 -7 50 -21 44 -31 -6 -10 3
-12 20 -6 30 12 40 -10 32 -69 -3 -20 13 -25 58 -19 84 13 79 -30 -9 -61 -38
-14 -70 -34 -70 -44 0 -11 -17 -19 -38 -19 -20 0 -48 -13 -62 -30 -13 -16 -31
-25 -39 -20 -34 20 -106 -91 -116 -179 -15 -135 -57 -116 -73 34 -22 199 -103
366 -226 465 -46 38 -91 170 -57 170 16 0 62 -34 103 -75 41 -41 67 -61 57
-45 -44 73 -30 160 25 160 29 0 47 -6 40 -13z m1466 -1486 c23 -44 5 -261 -23
-261 -9 0 -17 10 -17 22 0 16 -9 16 -29 -1 -37 -31 3 -107 48 -90 21 8 20 1
-5 -27 -19 -20 -34 -52 -34 -71 0 -18 -18 -51 -41 -74 -22 -22 -36 -47 -31
-56 5 -8 -8 -26 -28 -39 -47 -29 -66 -2 -41 59 11 28 20 35 21 17 2 -21 8 -18
20 10 24 56 24 75 -1 59 -13 -8 -19 2 -15 24 4 24 -5 36 -27 34 -20 -1 -39 17
-46 44 -10 44 -14 45 -66 18 -76 -39 -112 0 -48 52 26 21 55 34 65 28 10 -6
18 7 18 30 0 65 1 69 35 106 29 32 28 38 -5 75 -20 22 -26 40 -14 40 38 0 88
-94 74 -139 -7 -22 -23 -38 -36 -36 -32 7 -18 -104 18 -140 24 -24 31 -22 46
18 9 26 10 52 1 58 -16 10 7 67 23 58 14 -9 98 23 99 37 1 8 5 41 9 73 5 33
-2 71 -13 85 -16 19 -16 26 0 26 12 0 31 -18 43 -39z m-992 -1266 c14 -14 21
-37 17 -50 -5 -14 5 -25 21 -25 75 0 85 -122 14 -180 -49 -40 -74 -83 -94
-162 -33 -131 -55 -150 -202 -167 -63 -8 -147 -19 -187 -24 -175 -24 -382 49
-284 99 31 17 86 58 122 92 36 35 93 80 127 100 33 21 60 43 59 50 -5 48 2 55
32 29 26 -21 35 -21 42 -2 5 14 30 25 57 25 27 0 54 14 61 30 6 17 29 30 51
30 23 0 44 17 50 40 6 22 19 35 29 28 9 -6 23 17 30 51 13 68 19 72 55 36z
m317 -202 c-39 -85 -155 -160 -217 -139 l-53 18 67 55 c171 138 189 150 206
132 12 -11 10 -37 -3 -66z m-1036 -433 c55 -20 71 -80 21 -80 -16 0 -30 -11
-30 -25 -1 -18 -5 -17 -18 3 -11 17 -40 24 -78 18 -47 -7 -63 0 -71 28 -17 64
77 94 176 56z"/>
<path d="M2993 4087 c-28 -28 -11 -122 28 -158 35 -32 44 -33 60 -8 24 39 24
64 -1 49 -11 -7 -20 1 -20 18 0 20 -12 27 -35 19 -24 -8 -20 -1 10 22 25 18
45 42 45 52 0 22 -66 26 -87 6z"/>
<path d="M3160 3980 c22 -15 24 -24 6 -36 -16 -10 -6 -23 30 -39 30 -14 65
-52 78 -85 27 -73 67 -80 54 -10 -9 54 10 64 48 26 19 -19 24 -16 24 10 0 19
-13 34 -28 34 -16 0 -45 21 -65 48 -21 26 -68 53 -107 59 -50 9 -61 7 -40 -7z"/>
<path d="M3375 3747 c-75 -39 -69 -61 21 -76 42 -7 102 -34 133 -59 61 -48
162 -32 142 23 -7 17 5 23 35 18 44 -8 182 53 162 72 -5 6 -41 3 -80 -5 -61
-14 -297 18 -343 47 -9 5 -40 -4 -70 -20z"/>
<path d="M670 3700 c-8 -13 -26 -18 -40 -13 -15 6 -32 -3 -39 -21 -9 -25 -17
-26 -41 -6 -17 14 -30 16 -30 5 0 -11 14 -31 30 -45 21 -17 30 -18 30 -2 0 12
7 20 15 18 31 -8 105 28 94 45 -6 11 3 19 20 19 17 0 31 -13 31 -30 0 -16 -8
-30 -17 -30 -10 0 -16 -26 -15 -58 2 -57 32 -67 32 -11 0 34 32 39 51 8 8 -14
22 -13 41 3 20 16 22 31 8 47 -11 14 -13 32 -5 41 8 9 4 10 -9 3 -13 -8 -19
-28 -13 -44 8 -21 2 -26 -20 -17 -18 6 -30 31 -27 55 4 47 -71 73 -96 33z"/>
<path d="M925 3668 c6 -6 28 -14 48 -17 24 -4 36 -21 35 -52 l-2 -46 36 44
c21 26 40 36 48 23 14 -23 50 -8 50 21 0 11 -26 15 -59 9 -32 -5 -64 -1 -71
10 -7 11 -31 20 -55 20 -23 0 -36 -5 -30 -12z"/>
<path d="M2240 3400 c0 -12 -24 -30 -53 -41 -29 -11 -48 -25 -43 -30 18 -18
110 27 123 59 6 18 3 32 -8 32 -10 0 -19 -9 -19 -20z"/>
<path d="M1950 3218 c-66 -15 -64 -21 10 -28 28 -3 86 -11 130 -17 181 -26
390 -33 390 -13 0 12 -61 20 -146 20 -89 0 -156 10 -173 25 -21 20 -24 20 -13
0 18 -32 6 -31 -74 1 -37 15 -89 20 -124 12z"/>
<path d="M5972 3204 c-12 -20 2 -145 18 -161 7 -7 9 31 6 83 -6 99 -8 104 -24
78z"/>
<path d="M693 3170 c4 -12 48 -22 97 -23 48 0 84 7 79 15 -6 9 -25 11 -43 4
-18 -7 -27 -5 -21 6 6 10 -18 18 -55 19 -38 0 -62 -9 -57 -21z"/>
<path d="M2320 2997 c-80 -40 -44 -46 59 -9 43 15 58 29 40 35 -16 5 -60 -6
-99 -26z"/>
<path d="M1736 2878 c-6 -67 -1 -78 32 -78 31 0 35 5 16 24 -61 61 -29 98 81
92 71 -4 103 -14 100 -31 -3 -14 9 -25 26 -25 17 0 26 9 19 20 -7 12 13 20 49
20 60 0 112 -63 87 -105 -4 -8 2 -15 14 -15 14 0 20 28 16 73 -9 84 -2 81
-259 94 l-173 9 -8 -78z"/>
<path d="M211 2882 c11 -39 7 -46 -18 -36 -43 17 -87 -60 -53 -93 18 -17 22
-13 17 17 -5 28 3 38 26 35 41 -7 63 48 36 92 -17 26 -18 24 -8 -15z"/>
<path d="M1504 2896 c-13 -13 -24 -45 -24 -70 0 -33 -12 -46 -40 -46 -31 0
-40 13 -40 60 0 38 -10 60 -28 60 -19 0 -25 -15 -18 -45 8 -37 5 -40 -13 -15
-17 23 -19 17 -9 -30 17 -75 128 -138 128 -73 0 10 16 17 35 16 28 -2 34 11
31 72 -6 89 35 102 71 24 19 -41 17 -52 -7 -62 -17 -6 -30 -26 -30 -43 0 -25
9 -22 41 12 22 24 50 44 62 44 15 0 15 8 -1 27 -12 16 -17 43 -10 60 15 41
-109 48 -148 9z"/>
<path d="M2460 2893 c-103 -47 -197 -160 -183 -218 1 -8 -19 -15 -47 -15 -27
0 -50 -9 -50 -20 0 -55 96 -10 170 80 44 54 118 117 165 141 120 60 69 90 -55
32z"/>
<path d="M20 2819 c0 -23 10 -60 22 -83 19 -36 18 -40 -10 -30 -17 7 -32 5
-32 -4 0 -10 14 -23 31 -30 43 -16 60 41 29 97 -13 26 -19 57 -11 69 7 12 4
22 -8 22 -11 0 -21 -19 -21 -41z"/>
<path d="M655 2806 c-41 -28 -74 -61 -73 -74 1 -14 4 -14 11 2 5 13 22 19 36
13 15 -5 57 18 94 51 83 75 37 80 -68 8z"/>
<path d="M240 2792 c0 -45 75 -53 86 -10 8 30 -1 38 -38 38 -28 0 -48 -12 -48
-28z"/>
<path d="M1195 2778 c-19 -11 -35 -33 -35 -49 0 -33 -51 -39 -70 -9 -7 12 -22
15 -32 9 -13 -8 -12 -22 2 -38 15 -20 13 -30 -12 -39 -23 -9 -29 -4 -22 16 6
15 -1 45 -16 65 -26 34 -29 33 -42 -28 -14 -72 -31 -80 -68 -35 -20 24 -20 36
1 61 22 26 18 28 -27 10 -40 -15 -50 -13 -43 6 14 34 -69 37 -103 4 -23 -23
-22 -29 2 -38 16 -7 27 -2 25 10 -3 12 9 27 25 32 17 6 24 4 16 -5 -8 -8 6
-32 30 -52 l44 -37 -50 -2 c-45 -1 -46 -3 -10 -17 61 -24 244 -26 286 -4 40
22 104 -3 66 -27 -12 -7 -22 -22 -22 -33 0 -11 22 -4 48 16 43 32 45 40 19 69
-25 28 -25 34 2 44 18 7 26 26 19 47 -6 20 4 11 21 -19 18 -30 41 -55 52 -55
30 0 22 34 -11 47 -17 7 -28 22 -25 35 7 32 -28 41 -70 16z"/>
<path d="M387 2735 c7 -25 13 -56 13 -70 0 -36 36 -31 94 15 l51 40 -72 30
c-94 39 -100 38 -86 -15z"/>
<path d="M1790 2756 c6 -15 50 -28 104 -31 51 -3 103 -15 116 -25 13 -11 29
-14 35 -8 15 14 95 -10 95 -28 0 -8 -76 -9 -170 -4 -107 6 -170 3 -170 -10 0
-12 73 -20 180 -20 173 0 180 2 180 45 0 25 -7 43 -15 41 -15 -4 -264 39 -330
57 -23 6 -31 1 -25 -17z"/>
<path d="M161 2683 c-11 -21 -13 -44 -6 -51 8 -8 4 -20 -7 -28 -24 -16 -148
-349 -148 -397 0 -45 81 -103 128 -91 39 11 39 11 1 26 -29 11 -19 16 38 17
65 1 74 -4 54 -27 -18 -23 -16 -33 11 -48 42 -24 50 -124 13 -161 -15 -15 -29
-24 -32 -20 -3 4 -26 36 -51 72 -52 75 -91 86 -71 20 32 -107 103 -223 183
-296 94 -87 141 -104 106 -39 -12 22 -25 83 -30 135 -5 52 -19 132 -31 177
-16 57 -16 104 -2 156 30 110 8 212 -45 210 -23 0 -31 -6 -17 -11 31 -13 33
-60 2 -79 -14 -9 -18 -5 -9 9 8 13 1 37 -15 53 -23 23 -32 24 -41 5 -6 -14 -9
2 -6 35 2 33 14 60 27 60 13 0 30 6 38 14 8 8 31 6 52 -5 34 -19 37 -11 37
101 0 97 -7 124 -35 134 -19 7 -42 25 -51 39 -23 39 -69 33 -93 -10z m90 -82
c-6 -10 -2 -24 9 -31 35 -22 0 -50 -63 -50 -75 0 -73 61 3 82 28 8 53 15 56
16 4 1 1 -6 -5 -17z"/>
<path d="M610 2702 c-58 -13 -34 -44 40 -50 11 -1 23 -22 26 -47 5 -34 -1 -42
-25 -33 -23 9 -31 -1 -31 -40 0 -29 10 -52 22 -52 12 0 17 12 12 28 -8 19 1
24 29 17 22 -6 46 -27 54 -47 7 -20 14 17 15 83 2 113 -1 119 -46 119 -27 0
-43 9 -36 20 7 11 10 19 6 18 -3 -2 -33 -9 -66 -16z"/>
<path d="M1680 2681 c0 -21 10 -45 22 -52 15 -10 18 1 8 33 -11 38 -9 43 10
25 16 -16 28 -110 33 -268 6 -156 19 -266 38 -306 22 -47 26 -50 17 -13 -7 28
-19 167 -26 310 -7 143 -19 271 -28 285 -25 39 -74 30 -74 -14z"/>
<path d="M1447 2669 c-7 -18 -2 -42 10 -54 17 -17 23 -15 23 9 0 18 23 36 55
42 71 13 85 -2 36 -38 -38 -27 -38 -28 3 -28 42 0 75 49 55 82 -20 32 -169 21
-182 -13z"/>
<path d="M1401 2595 c8 -47 16 -87 17 -90 1 -3 2 -23 2 -45 0 -22 8 -40 18
-40 10 0 15 16 11 35 -4 19 -12 78 -19 130 -7 52 -20 95 -29 95 -8 0 -9 -38 0
-85z"/>
<path d="M0 2604 c0 -12 9 -27 20 -34 11 -7 20 -21 20 -32 0 -11 -10 -14 -23
-6 -13 8 -19 3 -13 -13 5 -15 19 -30 32 -34 35 -12 30 85 -6 115 -19 16 -30
17 -30 4z"/>
<path d="M880 2532 c0 -88 58 -121 107 -62 10 13 20 11 26 -4 8 -19 16 -19 35
-1 31 29 -31 108 -67 86 -12 -8 -26 0 -33 16 -28 73 -68 52 -68 -35z"/>
<path d="M1230 2568 c-40 -30 -40 -31 -1 -59 52 -39 90 -37 40 1 -39 30 -39
30 0 60 21 17 30 30 20 29 -11 0 -37 -14 -59 -31z"/>
<path d="M1540 2567 c-16 -6 -42 -14 -56 -18 -16 -5 -20 -19 -11 -34 9 -14 14
-39 11 -55 -3 -19 28 -46 80 -70 86 -41 124 -90 68 -90 -19 0 -26 11 -19 30
11 30 -15 42 -39 17 -22 -22 26 -87 66 -87 96 0 46 127 -59 150 -70 15 -63 50
10 50 40 0 49 10 48 55 -2 54 -2 54 -20 9 -21 -52 -99 -56 -115 -6 -7 20 3 25
33 17 29 -8 43 -2 43 17 0 15 -2 27 -5 26 -3 0 -18 -6 -35 -11z"/>
<path d="M3470 2540 c8 -25 4 -40 -11 -40 -14 0 -19 -17 -13 -40 16 -63 -20
-47 -75 35 -28 41 -52 68 -53 60 -7 -48 -1 -92 19 -141 35 -86 10 -101 -67
-42 -38 29 -38 31 -4 51 47 26 10 77 -56 77 -45 0 -99 -44 -79 -64 5 -6 -4
-22 -21 -36 -16 -14 -30 -42 -30 -64 0 -62 69 -36 76 29 4 30 15 55 26 55 10
0 15 -21 10 -47 -17 -94 189 -147 279 -72 15 12 34 19 43 14 23 -12 75 50 79
93 2 28 -7 33 -45 23 -44 -11 -46 -8 -28 40 26 66 25 75 -3 57 -16 -10 -20 -4
-11 19 8 22 2 33 -18 33 -22 0 -27 -12 -18 -40z"/>
<path d="M429 2513 c-14 -57 -2 -204 16 -198 8 3 26 5 39 5 18 0 19 5 0 24
-17 17 -17 30 -1 50 17 20 14 26 -11 26 -17 0 -32 7 -32 16 0 9 32 12 70 8 70
-8 89 -30 49 -55 -15 -9 -12 -24 8 -46 37 -41 9 -70 -77 -79 -100 -11 -106
-38 -79 -391 l15 -197 169 11 c152 9 257 33 148 33 -24 0 -43 10 -43 21 0 12
-9 16 -20 9 -12 -7 -15 -21 -9 -31 6 -11 2 -19 -10 -19 -11 0 -21 18 -21 40 0
22 10 40 23 40 14 0 10 15 -10 37 -63 69 -43 123 45 123 80 0 111 -69 59 -133
-12 -14 -7 -26 12 -34 17 -6 31 -25 31 -40 0 -16 14 -34 32 -41 50 -19 108
-14 108 10 0 13 -21 19 -51 13 -32 -6 -48 -2 -43 13 5 12 -4 46 -19 76 -34 68
-4 91 63 48 63 -41 76 -40 54 3 -10 19 -12 58 -5 85 9 32 4 57 -14 71 -22 16
-20 21 12 23 22 2 45 -10 51 -25 24 -63 119 -6 135 81 4 22 20 40 36 40 36 0
53 49 18 52 -15 2 -34 1 -43 0 -10 -2 -12 5 -6 15 6 9 -13 28 -41 41 -47 21
-51 20 -42 -13 7 -27 -12 -50 -68 -82 -43 -25 -74 -52 -68 -61 5 -9 -17 -15
-50 -14 -42 1 -59 12 -59 36 0 23 10 31 30 23 17 -6 30 -2 30 10 0 12 32 27
70 34 96 18 103 114 12 145 -32 12 -64 15 -70 9 -7 -6 -12 -3 -12 8 0 12 -23
31 -51 44 -60 27 -91 30 -51 5 44 -28 11 -129 -39 -116 -21 6 -39 2 -39 -8 0
-10 22 -18 48 -18 58 0 85 -198 35 -258 -24 -29 -25 -29 -15 3 13 43 -14 46
-48 5 -14 -16 -36 -30 -50 -30 -36 0 -51 51 -24 78 33 33 63 27 34 -8 -30 -36
1 -41 36 -6 36 36 30 50 -26 64 -52 13 -76 112 -27 112 13 0 18 6 11 12 -6 7
-53 -7 -104 -32 -51 -25 -97 -39 -104 -33 -6 7 3 18 22 25 26 10 28 19 10 40
-19 23 -8 28 62 28 84 0 85 1 73 60 -11 56 -8 60 48 60 37 0 59 10 59 28 0 31
-54 58 -82 41 -10 -6 -18 -3 -18 7 0 10 -43 31 -95 45 -84 24 -89 29 -45 39
50 12 50 12 5 24 -35 10 -48 3 -56 -31z m156 -436 c-7 -29 -22 -37 -50 -30
-22 6 -53 -2 -69 -18 -25 -25 -20 -29 43 -29 78 0 97 -32 26 -46 -39 -7 -37
-9 10 -11 59 -3 69 -21 31 -59 -19 -19 -18 -24 1 -24 14 0 21 -7 15 -17 -6 -9
-38 -12 -72 -7 -49 7 -57 14 -38 36 18 22 16 28 -7 28 -44 0 -60 123 -21 154
16 13 25 32 18 43 -15 25 24 38 80 28 32 -7 41 -19 33 -48z m15 -319 c0 -20
-17 -29 -88 -46 -54 -13 -57 -12 -30 20 22 27 22 36 3 43 -60 20 -18 39 45 20
39 -12 70 -29 70 -37z"/>
<path d="M3624 2460 c-1 -33 7 -60 17 -60 11 0 19 27 19 60 0 33 -8 60 -17 60
-9 0 -18 -27 -19 -60z"/>
<path d="M2963 2465 c3 -19 -10 -59 -30 -88 -32 -49 -32 -58 -4 -120 18 -37
27 -51 22 -32 -5 19 -2 35 8 35 10 0 18 -36 17 -80 0 -44 -9 -80 -18 -80 -10
0 -18 -13 -18 -30 0 -38 80 -57 191 -45 49 6 89 2 89 -8 0 -77 138 -51 166 31
14 41 70 -27 62 -74 -5 -24 -3 -33 3 -19 7 14 20 21 29 15 9 -6 35 16 58 47
l41 58 -42 54 c-47 60 -144 56 -190 -7 -16 -21 -58 -33 -120 -36 -54 -2 -119
-6 -147 -10 l-50 -6 0 215 c0 194 -3 215 -36 215 -24 0 -35 -13 -31 -35z"/>
<path d="M1180 2419 c0 -23 9 -58 20 -79 13 -25 13 -42 0 -50 -55 -34 9 -97
75 -75 41 14 32 108 -10 101 -26 -4 -34 6 -30 40 3 31 -3 42 -18 32 -15 -9
-18 -5 -8 10 11 19 24 16 53 -10 21 -19 38 -25 38 -13 0 19 -85 85 -109 85 -6
0 -11 -19 -11 -41z"/>
<path d="M2225 2427 c-31 -13 -33 -127 -3 -127 12 0 17 14 11 30 -7 17 -2 30
11 30 12 0 17 6 10 13 -8 7 -4 25 9 40 22 27 8 32 -38 14z"/>
<path d="M2129 2371 c-15 -22 -51 -25 -164 -14 -112 11 -145 9 -145 -11 0 -19
43 -26 160 -26 147 0 160 -3 160 -40 0 -22 10 -40 22 -40 13 0 18 28 12 71
-12 86 -19 96 -45 60z"/>
<path d="M2800 2357 c0 -20 14 -37 30 -37 17 0 30 17 30 37 0 20 -13 36 -30
36 -16 0 -30 -16 -30 -36z"/>
<path d="M1316 2265 c-5 -63 -1 -124 8 -134 9 -10 16 41 16 115 0 164 -13 175
-24 19z"/>
<path d="M1467 2160 c8 -169 153 -333 153 -172 0 65 -40 125 -67 98 -7 -7 -13
11 -13 41 0 34 -11 53 -30 53 -16 0 -29 16 -28 35 1 21 5 25 11 10 6 -14 19
-25 30 -25 25 0 67 -41 82 -80 10 -25 12 -24 13 3 2 27 -121 157 -148 157 -4
0 -6 -54 -3 -120z"/>
<path d="M1840 2177 c0 -49 21 -97 43 -97 11 0 10 16 -2 39 -12 21 -21 41 -21
45 0 23 193 -14 214 -41 23 -30 25 -30 25 2 1 40 53 48 68 10 5 -14 11 -5 11
19 2 40 -8 43 -168 50 -148 5 -170 2 -170 -27z"/>
<path d="M1167 2090 c-6 -17 -7 -59 -2 -93 7 -49 1 -64 -30 -72 -26 -7 -35
-23 -28 -49 11 -44 -33 -163 -53 -143 -8 8 -14 48 -14 90 0 91 -49 90 -56 -2
-6 -79 81 -141 197 -141 46 0 175 -13 286 -29 112 -16 239 -35 283 -41 44 -6
112 -15 150 -21 l70 -10 -50 35 c-27 20 -120 92 -206 161 -86 70 -165 121
-176 114 -10 -7 -17 0 -13 15 3 14 -6 24 -20 21 -14 -3 -25 6 -26 20 -3 86
-284 217 -312 145z m102 -210 c37 -14 51 -12 51 4 0 13 12 7 27 -14 17 -22 52
-37 91 -37 40 0 56 -7 44 -19 -27 -27 -117 -24 -173 7 -39 20 -53 20 -79 -1
-26 -22 -29 -20 -17 12 13 34 11 35 -19 11 -29 -24 -34 -24 -34 3 0 17 -11 35
-25 41 -48 19 83 13 134 -7z"/>
<path d="M1892 2032 c11 -28 29 -31 102 -20 81 12 89 9 83 -24 -5 -26 -28 -40
-72 -44 -36 -4 -65 -16 -65 -27 0 -11 16 -15 35 -10 19 6 65 16 102 24 49 9
61 19 45 35 -12 12 -22 29 -22 38 0 26 76 18 87 -9 6 -15 10 -11 11 10 2 25
-13 35 -53 35 -30 0 -102 6 -160 13 -94 11 -104 9 -93 -21z"/>
<path d="M1766 1914 c8 -130 155 -335 154 -214 -1 105 -40 209 -99 268 l-62
62 7 -116z"/>
<path d="M3846 1912 c-25 -12 -47 -34 -50 -50 -3 -16 -28 -31 -56 -35 -170
-21 -262 -28 -356 -28 -70 0 -101 -7 -93 -21 8 -12 31 -17 52 -11 30 7 36 2
28 -25 -13 -41 43 -99 108 -112 24 -4 61 -14 83 -21 21 -6 38 -2 38 10 0 11
-10 21 -21 21 -12 0 -15 10 -8 22 14 22 58 -7 60 -38 3 -68 52 -103 100 -72
27 18 61 28 76 22 56 -22 84 20 44 65 -20 22 -28 41 -16 41 12 0 19 16 16 35
-4 19 -16 33 -28 30 -29 -6 7 91 52 140 39 44 29 53 -29 27z m-186 -131 c0
-24 -62 -86 -74 -74 -14 14 33 93 55 93 10 0 19 -8 19 -19z"/>
<path d="M75 1873 c-20 -49 -22 -45 40 -102 53 -50 54 -51 10 -51 -25 0 -45
-12 -45 -27 0 -31 75 -105 91 -89 5 6 -4 22 -21 36 -16 14 -30 34 -30 45 0 11
14 9 30 -5 17 -14 37 -19 45 -10 8 8 4 19 -9 24 -13 5 -19 21 -14 35 6 15 -7
39 -29 54 -21 16 -42 50 -46 77 -6 43 -9 45 -22 13z"/>
<path d="M2136 1869 c-40 -22 -67 -24 -106 -9 -41 16 -51 14 -45 -5 5 -14 26
-22 46 -18 33 6 34 3 8 -29 -27 -32 -25 -33 31 -18 68 19 114 19 200 0 l60
-13 -65 43 c-36 24 -60 52 -54 62 16 26 -13 21 -75 -13z"/>
<path d="M2040 1656 c0 -89 2 -91 90 -125 50 -19 104 -48 120 -64 83 -83 15
30 -83 138 -63 69 -117 129 -120 133 -4 5 -7 -32 -7 -82z"/>
<path d="M856 1625 c-31 -7 -31 -10 0 -46 40 -48 67 -51 50 -6 -10 25 -6 29
16 16 38 -24 81 -29 68 -9 -6 9 1 21 15 27 25 10 25 10 -75 20 -22 3 -55 1
-74 -2z"/>
<path d="M725 1586 c-62 -12 -36 -46 36 -46 43 0 55 8 46 30 -6 17 -17 29 -24
27 -7 -1 -33 -6 -58 -11z"/>
<path d="M2382 1485 c-1 -14 -9 -24 -17 -23 -41 7 -66 -4 -54 -23 7 -12 25
-17 40 -11 15 6 32 3 38 -7 22 -35 200 -62 291 -43 l90 18 -93 2 c-76 2 -253
61 -187 62 23 1 -32 39 -56 40 -9 0 -11 -9 -4 -20 7 -11 4 -20 -7 -20 -11 0
-24 11 -30 25 -8 20 -10 20 -11 0z"/>
<path d="M1050 1401 c-121 -20 -273 -45 -337 -58 -82 -16 -128 -16 -156 -1
-30 16 -60 10 -130 -24 -80 -38 -111 -42 -259 -31 l-168 13 0 -78 c0 -79 36
-118 75 -79 13 13 30 9 51 -12 17 -17 41 -31 53 -31 11 0 21 -9 21 -20 0 -11
8 -20 17 -20 10 0 13 23 8 50 -8 39 -3 48 21 39 36 -14 59 -64 43 -91 -6 -10
4 -18 22 -18 25 0 31 13 25 47 -6 32 3 55 29 72 27 17 35 17 25 1 -16 -25 52
-20 71 5 20 26 94 34 157 16 41 -12 71 -9 100 12 38 26 40 26 30 -7 -10 -31
-8 -32 15 -6 53 59 184 63 228 8 30 -37 31 -37 20 4 -13 45 46 61 74 20 9 -14
15 -10 15 11 0 18 14 38 31 45 18 6 26 3 19 -8 -17 -28 17 -25 46 4 19 19 24
16 24 -11 0 -20 9 -30 20 -23 12 7 15 21 9 31 -6 11 3 19 20 19 17 0 31 -7 31
-16 0 -9 41 -15 90 -13 50 1 90 -6 90 -15 0 -10 8 -13 18 -7 27 17 84 -10 69
-33 -7 -13 5 -15 34 -6 39 13 43 9 29 -23 -9 -20 -16 -53 -17 -72 -1 -19 -17
-35 -36 -35 -19 0 -40 -8 -46 -18 -6 -10 7 -14 28 -8 35 9 40 1 37 -61 -1 -47
-13 -74 -34 -80 -20 -5 -15 -9 13 -11 30 -1 45 -15 45 -39 0 -21 20 -63 45
-94 24 -32 33 -50 18 -41 -21 13 -21 9 -1 -25 21 -32 34 -36 64 -20 33 18 36
15 25 -21 -8 -26 -5 -42 9 -42 28 0 13 -190 -18 -228 -13 -15 -17 -42 -10 -59
7 -18 2 -33 -10 -33 -12 0 -22 -13 -22 -29 0 -15 -18 -34 -40 -41 -31 -10 -36
-20 -21 -49 11 -20 13 -43 5 -52 -8 -8 2 -10 22 -2 22 7 31 5 24 -7 -7 -11 -7
-38 0 -60 16 -50 1157 -64 1209 -15 21 20 24 20 13 0 -10 -17 2 -25 37 -25 37
0 51 11 51 39 0 25 13 38 38 36 22 -2 33 -14 28 -29 -13 -33 47 -14 102 32 22
18 32 21 24 7 -28 -49 96 -27 146 26 26 28 44 53 40 57 -16 13 -439 -26 -698
-65 -317 -48 -822 -63 -868 -25 -37 31 -63 143 -37 159 10 7 20 27 21 43 10
174 78 263 214 280 l80 10 -118 68 c-237 137 -326 258 -269 367 13 25 29 59
37 75 7 17 65 66 129 110 81 56 105 82 81 87 -19 4 -62 -13 -94 -37 -66 -49
-97 -38 -60 21 42 67 -82 109 -496 167 -27 4 -149 -8 -270 -27z"/>
<path d="M2060 1195 c-67 -30 -66 -29 -51 -54 9 -14 32 -11 73 10 42 22 71 81
32 68 -2 -1 -26 -12 -54 -24z"/>
<path d="M2180 1192 c0 -16 10 -32 23 -36 13 -5 26 -29 30 -54 4 -25 21 -59
37 -75 17 -16 30 -43 30 -58 0 -18 20 -29 55 -28 46 0 50 3 21 20 -19 11 -29
33 -23 50 6 16 0 29 -14 29 -14 0 -20 6 -12 14 7 7 -6 34 -30 60 -24 25 -36
46 -27 46 21 0 -53 58 -75 59 -8 1 -15 -12 -15 -27z"/>
<path d="M1897 1101 c-26 -22 -36 -40 -23 -40 42 -2 126 38 126 59 0 33 -52
23 -103 -19z"/>
<path d="M1800 1013 c0 -17 18 -26 45 -23 66 7 68 9 35 30 -43 28 -80 24 -80
-7z"/>
<path d="M288 829 c9 -101 32 -111 32 -12 0 46 -9 83 -19 83 -11 0 -16 -32
-13 -71z"/>
<path d="M1920 790 c0 -13 159 -92 224 -111 94 -27 63 -2 -77 61 -140 63 -147
66 -147 50z"/>
<path d="M3666 718 c-41 -21 -85 -38 -97 -38 -14 0 -20 -20 -14 -51 8 -41 14
-45 32 -22 22 26 176 64 333 82 39 5 74 9 79 10 5 0 -1 11 -14 24 -40 40 -236
37 -319 -5z"/>
<path d="M3820 607 c-62 -10 -225 -51 -244 -61 -55 -29 13 -58 81 -35 42 15
131 32 200 40 78 9 122 23 117 37 -8 24 -74 32 -154 19z"/>
<path d="M3405 430 c-47 -40 -85 -83 -85 -94 0 -12 -16 -34 -35 -48 -43 -33
-9 -36 144 -15 82 11 98 21 116 72 13 38 25 50 35 35 11 -18 25 -18 55 -2 23
11 91 27 153 34 75 9 112 23 112 41 0 36 -112 29 -354 -24 -32 -7 -45 1 -50
32 -6 39 -13 36 -91 -31z"/>
</g>
</svg>
